<svg width="21" height="20" fill="none" xmlns="http://www.w3.org/2000/svg"><path d="M10.452 4.825a5.175 5.175 0 1 0 0 10.35 5.175 5.175 0 0 0 0-10.35Zm0 8.331A3.162 3.162 0 1 1 13.614 10a3.125 3.125 0 0 1-3.162 3.156Zm5.187-9.531a1.25 1.25 0 1 1 0 2.5 1.25 1.25 0 0 1 0-2.5ZM14.496 0H6.413A5.963 5.963 0 0 0 .452 5.956v8.081A5.969 5.969 0 0 0 6.414 20h8.082a5.963 5.963 0 0 0 5.956-5.963v-8.08A5.956 5.956 0 0 0 14.495 0Zm3.95 14.037a3.95 3.95 0 0 1-3.95 3.95H6.413a3.95 3.95 0 0 1-3.95-3.95v-8.08a3.944 3.944 0 0 1 3.95-3.944h8.082a3.944 3.944 0 0 1 3.95 3.943v8.082Z" fill="#000" fill-opacity=".2"/></svg>