<svg width="20" height="21" viewBox="0 0 20 21" fill="none" xmlns="http://www.w3.org/2000/svg">
<path d="M10 5.53784C8.9765 5.53784 7.97596 5.84136 7.12494 6.41C6.27391 6.97863 5.61063 7.78685 5.21894 8.73246C4.82726 9.67807 4.72477 10.7186 4.92445 11.7224C5.12413 12.7263 5.61699 13.6484 6.34073 14.3721C7.06447 15.0959 7.98657 15.5887 8.99042 15.7884C9.99427 15.9881 11.0348 15.8856 11.9804 15.4939C12.926 15.1022 13.7342 14.4389 14.3029 13.5879C14.8715 12.7369 15.175 11.7364 15.175 10.7128C15.175 9.34035 14.6298 8.02407 13.6593 7.05357C12.6888 6.08307 11.3725 5.53784 10 5.53784ZM10 13.8691C9.37427 13.8691 8.76258 13.6835 8.24238 13.3357C7.72217 12.9879 7.31683 12.4936 7.07765 11.9154C6.83848 11.3372 6.77621 10.701 6.89875 10.0873C7.02128 9.47369 7.32311 8.91019 7.76602 8.46816C8.20893 8.02613 8.77301 7.72543 9.38688 7.60411C10.0008 7.48279 10.6368 7.5463 11.2146 7.78663C11.7923 8.02695 12.2858 8.43326 12.6326 8.95415C12.9793 9.47504 13.1638 10.0871 13.1625 10.7128C13.1667 11.129 13.0877 11.5418 12.9302 11.9271C12.7727 12.3123 12.5398 12.6622 12.2452 12.9562C11.9506 13.2502 11.6003 13.4824 11.2147 13.6392C10.8292 13.796 10.4162 13.8741 10 13.8691Z" fill="url(#paint0_linear_305_154)"/>
<path d="M15.1812 6.81289C15.8647 6.81289 16.4187 6.25884 16.4187 5.57539C16.4187 4.89194 15.8647 4.33789 15.1812 4.33789C14.4978 4.33789 13.9437 4.89194 13.9437 5.57539C13.9437 6.25884 14.4978 6.81289 15.1812 6.81289Z" fill="url(#paint1_linear_305_154)"/>
<path d="M14.0438 0.712891H5.96251C4.38223 0.71289 2.86659 1.34023 1.74858 2.45707C0.630575 3.5739 0.00165647 5.08887 0 6.66914V14.7504C0.00165447 16.3313 0.630372 17.8469 1.7482 18.9647C2.86603 20.0825 4.38166 20.7112 5.96251 20.7129H14.0438C15.624 20.7112 17.139 20.0823 18.2558 18.9643C19.3727 17.8463 20 16.3307 20 14.7504V6.66914C20 5.08944 19.3725 3.57446 18.2554 2.45745C17.1384 1.34043 15.6234 0.712891 14.0438 0.712891ZM17.9938 14.7504C17.9938 15.798 17.5776 16.8027 16.8368 17.5435C16.096 18.2842 15.0914 18.7004 14.0438 18.7004H5.96251C4.9149 18.7004 3.91019 18.2842 3.16942 17.5435C2.42865 16.8027 2.0125 15.798 2.0125 14.7504V6.66914C2.0125 6.15071 2.11471 5.63739 2.31329 5.1585C2.51187 4.67962 2.80293 4.24458 3.1698 3.87829C3.53668 3.512 3.97217 3.22162 4.45137 3.0238C4.93057 2.82597 5.44408 2.72457 5.96251 2.72539H14.0438C14.5622 2.72457 15.0757 2.82597 15.5549 3.0238C16.0341 3.22162 16.4696 3.512 16.8364 3.87829C17.2033 4.24458 17.4944 4.67962 17.6929 5.1585C17.8915 5.63739 17.9938 6.15071 17.9938 6.66914V14.7504Z" fill="url(#paint2_linear_305_154)"/>
<defs>
<linearGradient id="paint0_linear_305_154" x1="10" y1="20.6503" x2="10" y2="0.86284" gradientUnits="userSpaceOnUse">
<stop stop-color="#F7943E"/>
<stop offset="0.3" stop-color="#DC4D54"/>
<stop offset="0.6" stop-color="#C71882"/>
<stop offset="1" stop-color="#5C2D91"/>
</linearGradient>
<linearGradient id="paint1_linear_305_154" x1="15.1875" y1="20.6504" x2="15.1875" y2="0.862891" gradientUnits="userSpaceOnUse">
<stop stop-color="#F7943E"/>
<stop offset="0.3" stop-color="#DC4D54"/>
<stop offset="0.6" stop-color="#C71882"/>
<stop offset="1" stop-color="#5C2D91"/>
</linearGradient>
<linearGradient id="paint2_linear_305_154" x1="10" y1="20.6504" x2="10" y2="0.86289" gradientUnits="userSpaceOnUse">
<stop stop-color="#F7943E"/>
<stop offset="0.3" stop-color="#DC4D54"/>
<stop offset="0.6" stop-color="#C71882"/>
<stop offset="1" stop-color="#5C2D91"/>
</linearGradient>
</defs>
</svg>
