<svg width="21" height="18" fill="none" xmlns="http://www.w3.org/2000/svg"><path d="M18.42 4.92v.531c0 5.425-4.13 11.675-11.674 11.675a11.643 11.643 0 0 1-6.294-1.844c.325.038.653.057.981.056a8.212 8.212 0 0 0 5.094-1.756 4.107 4.107 0 0 1-3.831-2.85 4.139 4.139 0 0 0 1.856-.069A4.106 4.106 0 0 1 1.258 6.64v-.05c.575.319 1.218.495 1.875.512a4.113 4.113 0 0 1-1.25-5.481 11.631 11.631 0 0 0 8.456 4.287 4.107 4.107 0 0 1 6.994-3.738 8.182 8.182 0 0 0 2.606-1 4.119 4.119 0 0 1-1.806 2.276c.812-.09 1.606-.301 2.356-.625a8.363 8.363 0 0 1-2.069 2.1Z" fill="#000" fill-opacity=".2"/></svg>