<svg width="7" height="5" viewBox="0 0 7 5" fill="none" xmlns="http://www.w3.org/2000/svg">
<path d="M3.58945 4.04898C3.45311 4.04493 3.32383 3.98749 3.22946 3.88901L0.229462 0.889008C0.133581 0.791716 0.079834 0.660584 0.079834 0.523987C0.079834 0.38739 0.133581 0.256288 0.229462 0.158997C0.277112 0.108766 0.33449 0.0687483 0.398102 0.0414124C0.461713 0.0140764 0.530221 0 0.599457 0C0.668693 0 0.7372 0.0140764 0.800812 0.0414124C0.864423 0.0687483 0.921801 0.108766 0.969452 0.158997L3.55945 2.74899L6.15945 0.158997C6.25947 0.0806886 6.38471 0.0416868 6.51151 0.0493774C6.6383 0.0570681 6.75789 0.110922 6.84772 0.200745C6.93754 0.290567 6.99136 0.410161 6.99905 0.536957C7.00674 0.663752 6.96777 0.788987 6.88947 0.889008L3.88947 3.88901C3.81022 3.97445 3.70455 4.03077 3.58945 4.04898Z" fill="black" fill-opacity="0.4"/>
</svg>
