<svg width="13" height="12" fill="none" xmlns="http://www.w3.org/2000/svg"><path fill-rule="evenodd" clip-rule="evenodd" d="M11.653 7.427c.121-.483.762-.907.762-1.427s-.64-.931-.762-1.415c-.12-.484.194-1.21 0-1.61-.193-.398-1.016-.483-1.367-.834-.35-.35-.41-1.125-.846-1.379s-1.113.085-1.61 0C7.336.677 6.925 0 6.416 0 5.907 0 5.472.641 5 .762c-.472.121-1.21-.193-1.609 0-.399.194-.496 1.016-.846 1.38-.351.362-1.113.398-1.367.834-.254.435.084 1.125 0 1.609C1.093 5.069.415 5.492.415 6s.63.944.763 1.427c.133.484-.206 1.21 0 1.597.205.387 1.016.496 1.367.847.35.35.41 1.125.846 1.367s1.113-.073 1.61 0c.495.072.894.762 1.414.762.52 0 .944-.629 1.416-.75s1.21.194 1.609 0 .484-1.016.847-1.379c.362-.363 1.112-.4 1.366-.835.254-.435-.133-1.125 0-1.609ZM9.452 4.851 6.113 8.117a.677.677 0 0 1-.943 0l-1.888-1.85a.677.677 0 1 1 .944-.969l1.415 1.404 2.867-2.807a.653.653 0 0 1 .944 0 .665.665 0 0 1 0 .956Z" fill="#FDC330"/></svg>