<svg width="24" height="22" viewBox="0 0 24 22" fill="none" xmlns="http://www.w3.org/2000/svg">
<path d="M12.3053 21.87C10.4463 21.8675 8.61984 21.3816 7.00532 20.46C4.94535 21.2324 2.67531 21.2324 0.615339 20.46C0.473678 20.4004 0.347672 20.309 0.247083 20.1928C0.146495 20.0766 0.0740428 19.9387 0.0353524 19.79C-0.00371224 19.6409 -0.00780402 19.4848 0.0234201 19.3339C0.0546442 19.183 0.120332 19.0413 0.215345 18.92L2.66533 15.8C1.96337 14.3467 1.59768 12.754 1.59535 11.14C1.60064 8.30208 2.73101 5.58204 4.73866 3.57626C6.74632 1.57048 9.46742 0.442645 12.3053 0.440002C15.145 0.44265 17.8676 1.57186 19.8755 3.5798C21.8835 5.58774 23.0127 8.31035 23.0153 11.15C23.0127 13.9906 21.8838 16.7142 19.8761 18.7237C17.8685 20.7333 15.1459 21.8647 12.3053 21.87Z" fill="black" fill-opacity="0.4"/>
</svg>
