<svg width="24" height="24" fill="none" xmlns="http://www.w3.org/2000/svg"><path d="m23.716 22.315-5.96-5.948a9.99 9.99 0 0 0-.98-13.756 10.035 10.035 0 0 0-13.815.294 9.99 9.99 0 0 0-.392 13.785 10.037 10.037 0 0 0 13.776 1.075l5.96 5.947a.993.993 0 0 0 .706.288.994.994 0 0 0 .989-.984.99.99 0 0 0-.284-.701ZM2.16 10.12A7.92 7.92 0 0 1 3.5 5.715a7.944 7.944 0 0 1 3.566-2.92 7.962 7.962 0 0 1 8.66 1.718 7.916 7.916 0 0 1 1.723 8.643 7.934 7.934 0 0 1-2.927 3.56 7.959 7.959 0 0 1-10.027-.98 7.923 7.923 0 0 1-2.335-5.595v-.02Z" fill="#000"/></svg>