<svg width="25" height="22" viewBox="0 0 25 22" fill="none" xmlns="http://www.w3.org/2000/svg">
<path d="M12.4582 21.8809C12.3167 21.8802 12.177 21.8495 12.0482 21.7909C11.8728 21.712 11.7238 21.5842 11.6191 21.4228C11.5145 21.2614 11.4586 21.0732 11.4582 20.8809V16.4709C6.88823 17.4709 2.73822 21.5409 2.68822 21.5909C2.5448 21.732 2.36215 21.8266 2.16411 21.8623C1.96608 21.898 1.76188 21.8731 1.57822 21.7909C1.38804 21.7063 1.22899 21.5645 1.12323 21.3853C1.01747 21.206 0.970273 20.9982 0.988224 20.7909C0.988224 20.6709 1.77822 8.92087 11.4582 5.88087V1.43086C11.4586 1.23849 11.5145 1.05033 11.6191 0.888924C11.7238 0.727519 11.8728 0.59975 12.0482 0.520882C12.2231 0.442114 12.417 0.415303 12.6067 0.443673C12.7964 0.472042 12.974 0.554367 13.1182 0.680855L24.2082 10.4409C24.3149 10.5346 24.4004 10.6499 24.459 10.7792C24.5176 10.9086 24.548 11.0489 24.5482 11.1909C24.548 11.3328 24.5176 11.4732 24.459 11.6025C24.4004 11.7318 24.3149 11.8472 24.2082 11.9409L13.1482 21.6509C12.9552 21.8114 12.7089 21.8935 12.4582 21.8809Z" fill="black" fill-opacity="0.4"/>
</svg>
