<svg width="19" height="22" viewBox="0 0 19 22" fill="none" xmlns="http://www.w3.org/2000/svg">
<path d="M13.8941 8.05704C15.305 9.06588 16.9972 9.6059 18.7316 9.60079V6.13829C18.3893 6.13727 18.048 6.10167 17.7129 6.03203V8.76329C15.9779 8.76531 14.2861 8.2232 12.8754 7.21329V14.3008C12.8762 15.4651 12.5603 16.6077 11.9615 17.6062C11.3628 18.6047 10.5037 19.4216 9.47628 19.9693C8.44888 20.517 7.29185 20.775 6.12907 20.7156C4.9663 20.6562 3.84159 20.2816 2.87537 19.632C3.76695 20.5456 4.91069 21.1726 6.16043 21.4329C7.41017 21.6932 8.70915 21.5749 9.89132 21.0932C11.0735 20.6114 12.0852 19.7882 12.7971 18.7285C13.509 17.6689 13.8887 16.4211 13.8879 15.1445V8.05704H13.8941ZM15.1441 4.55078C14.4275 3.77015 13.9881 2.77505 13.8941 1.71953V1.26953H12.9254C13.0442 1.94154 13.3032 2.581 13.6855 3.14632C14.0677 3.71165 14.5647 4.19017 15.1441 4.55078ZM5.1441 16.907C4.74211 16.4025 4.52193 15.7772 4.5191 15.132C4.51828 14.7461 4.59371 14.3637 4.74104 14.0069C4.88837 13.6502 5.1047 13.326 5.37764 13.0531C5.65057 12.7801 5.97474 12.5638 6.3315 12.4165C6.68827 12.2691 7.07062 12.1937 7.45661 12.1945C7.75783 12.1934 8.05736 12.2398 8.34412 12.332V8.78204C8.00876 8.73528 7.67008 8.71647 7.3316 8.7258V11.4883C6.62954 11.2702 5.87126 11.3233 5.20645 11.6371C4.54165 11.9509 4.01866 12.5026 3.74077 13.1832C3.46288 13.8638 3.45028 14.6238 3.70546 15.3133C3.96065 16.0027 4.46507 16.5714 5.11911 16.907H5.1441Z" fill="#FF004F"/>
<path d="M12.8753 7.20703C14.286 8.21695 15.9778 8.75905 17.7128 8.75704V6.02579C16.6053 5.64978 15.5984 5.02585 14.7687 4.20158C13.939 3.37732 13.3085 2.37447 12.9253 1.26953H10.4253V15.1383C10.36 15.7862 10.1139 16.4026 9.71525 16.9175C9.31656 17.4323 8.78125 17.8248 8.17033 18.0501C7.55941 18.2754 6.89748 18.3246 6.25997 18.192C5.62247 18.0593 5.03506 17.7502 4.5647 17.3C4.09435 16.8497 3.75997 16.2763 3.5997 15.6451C3.43942 15.014 3.45969 14.3506 3.6582 13.7304C3.85671 13.1103 4.22547 12.5584 4.72244 12.1376C5.21941 11.7169 5.82461 11.4442 6.46902 11.3508C6.77239 11.3482 7.07419 11.3947 7.36276 11.4883V8.7258C6.13941 8.63195 4.91661 8.9146 3.85856 9.53585C2.80052 10.1571 1.95787 11.0872 1.44373 12.2012C0.929587 13.3152 0.768579 14.5599 0.98232 15.7681C1.19606 16.9763 1.77432 18.0901 2.63946 18.9602C3.5046 19.8302 4.61519 20.4147 5.82216 20.6352C7.02913 20.8558 8.27468 20.7018 9.39159 20.1939C10.5085 19.6861 11.4433 18.8486 12.0705 17.7941C12.6977 16.7396 12.9872 15.5184 12.9003 14.2945V7.20703H12.8753Z" fill="black"/>
<path d="M17.7128 6.02592V5.28842C16.8045 5.287 15.9148 5.03153 15.1441 4.55091C15.8253 5.29875 16.7236 5.81455 17.7128 6.02592ZM12.9253 1.26966C12.9253 1.13841 12.8878 1.00715 12.8753 0.875904V0.425903H9.38157V14.2947C9.37829 14.795 9.24753 15.2863 9.00162 15.7221C8.75572 16.1578 8.40279 16.5237 7.97617 16.7852C7.54956 17.0467 7.06335 17.1951 6.56344 17.2164C6.06353 17.2378 5.56642 17.1313 5.11908 16.9072C5.48895 17.4047 6.00647 17.7728 6.59787 17.959C7.18926 18.1451 7.82433 18.1397 8.4125 17.9437C9.00067 17.7476 9.51194 17.3709 9.87338 16.8671C10.2348 16.3634 10.428 15.7584 10.4253 15.1384V1.26966H12.9253ZM7.33782 8.72592V7.93842C7.04602 7.89584 6.75146 7.87495 6.45657 7.87591C5.08038 7.87584 3.74061 8.31807 2.63487 9.13737C1.52914 9.95668 0.716007 11.1097 0.315424 12.4263C-0.0851599 13.7429 -0.0519969 15.1534 0.410047 16.4497C0.872091 17.746 1.73854 18.8595 2.88157 19.6259C2.00497 18.7316 1.40942 17.6001 1.16843 16.3712C0.927439 15.1423 1.05156 13.8697 1.52546 12.7106C1.99937 11.5514 2.80233 10.5563 3.83523 9.84824C4.86812 9.14014 6.08574 8.74999 7.33782 8.72592Z" fill="#00F2EA"/>
</svg>
