<svg width="21" height="17" viewBox="0 0 21 17" fill="none" xmlns="http://www.w3.org/2000/svg">
<path d="M17.9688 4.77466C17.9688 4.94966 17.9688 5.13091 17.9688 5.30591C17.9688 10.7309 13.8375 16.9809 6.29375 16.9809C4.06252 16.982 1.87793 16.3421 0 15.1372C0.325729 15.1748 0.653362 15.1936 0.981255 15.1934C2.82836 15.1975 4.6229 14.5788 6.075 13.4372C5.21898 13.4208 4.38948 13.1373 3.70253 12.6263C3.01557 12.1153 2.50555 11.4023 2.24377 10.5872C2.49898 10.6378 2.75858 10.6629 3.01876 10.6622C3.38394 10.6622 3.74752 10.6138 4.10002 10.5184C3.17077 10.3308 2.33504 9.82751 1.73468 9.09385C1.13431 8.3602 0.80627 7.44141 0.806255 6.49341V6.44342C1.38086 6.76277 2.0241 6.93859 2.68126 6.95592C1.81608 6.37161 1.20552 5.48011 0.973396 4.46224C0.74127 3.44436 0.904951 2.3763 1.43126 1.47466C2.46066 2.74307 3.7457 3.78043 5.20269 4.51915C6.65968 5.25788 8.25594 5.68141 9.8875 5.76217C9.81719 5.45674 9.78156 5.14433 9.78127 4.83091C9.78211 4.00809 10.0301 3.2045 10.4932 2.52433C10.9562 1.84417 11.6129 1.3188 12.3781 1.01634C13.1434 0.713894 13.9818 0.648318 14.7847 0.828109C15.5877 1.0079 16.3181 1.42477 16.8813 2.02466C17.8009 1.8431 18.6825 1.50484 19.4875 1.02466C19.1817 1.97719 18.5396 2.78587 17.6813 3.29967C18.4934 3.20953 19.2875 2.99888 20.0375 2.67467C19.4777 3.49165 18.7772 4.20268 17.9688 4.77466Z" fill="#1DA1F2"/>
</svg>
