<svg width="24" height="17" viewBox="0 0 24 17" fill="none" xmlns="http://www.w3.org/2000/svg">
<path d="M22.7816 2.72016C22.6526 2.2432 22.4005 1.80852 22.0506 1.45969C21.7006 1.11086 21.2652 0.860147 20.7878 0.732666C19.0378 0.263916 12.0003 0.263916 12.0003 0.263916C12.0003 0.263916 4.96281 0.263916 3.20656 0.732666C2.72718 0.858808 2.28944 1.10886 1.93728 1.45773C1.58512 1.80659 1.33096 2.24198 1.20032 2.72016C0.731567 4.47641 0.731567 8.1389 0.731567 8.1389C0.731567 8.1389 0.731567 11.7952 1.20032 13.5514C1.32933 14.0273 1.58067 14.4612 1.92934 14.8099C2.27802 15.1586 2.71188 15.4099 3.18781 15.5389C4.94406 16.0139 11.9816 16.0139 11.9816 16.0139C11.9816 16.0139 19.0191 16.0139 20.7691 15.5389C21.2464 15.4114 21.6819 15.1607 22.0318 14.8119C22.3818 14.463 22.6338 14.0284 22.7628 13.5514C23.2316 11.7952 23.2316 8.1389 23.2316 8.1389C23.2316 8.1389 23.2503 4.47641 22.7816 2.72016ZM9.75031 11.5139V4.76391L15.5941 8.1389L9.75031 11.5139Z" fill="#FF0000"/>
</svg>
