<svg width="65" height="65" fill="none" xmlns="http://www.w3.org/2000/svg"><path d="M64.01 32c0-17.673-14.327-32-32-32-17.673 0-32 14.327-32 32 0 17.673 14.327 32 32 32 17.673 0 32-14.327 32-32Z" fill="url(#a)"/><mask id="b" style="mask-type:luminance" maskUnits="userSpaceOnUse" x="0" y="0" width="64" height="65"><path d="M64 32.01c0-17.673-14.327-32-32-32-17.673 0-32 14.327-32 32 0 17.673 14.327 32 32 32 17.673 0 32-14.327 32-32Z" fill="#fff"/></mask><g mask="url(#b)"><path d="m25.696 24.695-31.718-5.606L30.17-7.203l-4.474 31.898Z" fill="#EDAE0F"/><path d="M21.798 36.695-5.42 23.428l12.992 40 14.227-26.733Z" fill="#F42A48"/><path d="M32 44.106 11.802 65.04h40.403L32 44.106Z" fill="#D838E5"/><path d="m33.837-7.203 4.473 31.898 31.719-5.606L33.837-7.203Z" fill="#26D318"/><path d="m42.208 36.695 14.227 26.733 12.992-40-27.219 13.267Z" fill="#2A95DD"/></g><defs><radialGradient id="a" cx="0" cy="0" r="1" gradientUnits="userSpaceOnUse" gradientTransform="matrix(32 0 0 32 31.741 31.834)"><stop offset=".516" stop-color="#fff"/><stop offset="1" stop-color="#CCC"/><stop offset="1" stop-color="#E6E6E6"/></radialGradient></defs></svg>