<svg width="180" height="50" fill="none" xmlns="http://www.w3.org/2000/svg"><path d="M67.91 15.363V9.81h6.115v5.553H67.91Zm0 25.547V17.844h6.115V40.91H67.91Zm22.655 0H78.751V9.81h11.5c6.002 0 10.221 2.841 10.221 8.13 0 3.684-1.997 5.625-4.219 6.796 3.286 1.333 5.553 3.336 5.553 7.42v.18c0 5.643-4.535 8.574-11.24 8.574Zm-.799-25.418h-4.753v7.066h4.438c2.847 0 4.67-1.125 4.67-3.555 0-2.352-1.603-3.51-4.355-3.51Zm.8 12.377h-5.553v7.314h5.727c2.891 0 4.67-1.199 4.67-3.6 0-2.403-1.604-3.691-4.845-3.691v-.023Zm15.004 13.019V9.81h6.115v31.1l-6.115-.022Zm20.523.472c-6.245 0-10.858-4.821-10.858-11.719v-.472c0-6.847 4.652-11.758 10.942-11.758s10.858 4.821 10.858 11.718v.473c0 6.87-4.653 11.78-10.942 11.78v-.022Zm4.889-12.169c0-3.792-1.936-6.458-4.867-6.458-3.015 0-4.827 2.627-4.827 6.374v.518c0 3.746 1.981 6.458 4.912 6.458s4.782-2.627 4.782-6.374v-.518Zm18.34 18.313a19.797 19.797 0 0 1-8.613-1.896l1.524-4.895a14.627 14.627 0 0 0 6.751 1.767c3.837 0 5.733-1.767 5.733-5.469v-1.468c-1.592 2.07-3.375 3.623-6.503 3.623-4.614 0-8.659-3.578-8.659-10.987 0-7.28 4.09-10.813 8.659-10.813 3.145 0 4.95 1.592 6.419 3.375v-2.925h6.115V36.64c.011 7.803-3.955 10.864-11.449 10.864h.023Zm.861-24.861c-2.583 0-4.501 2.154-4.501 5.688 0 3.533 1.896 5.597 4.501 5.597 2.604 0 4.568-2.149 4.568-5.597-.023-3.534-2.003-5.688-4.591-5.688h.023Zm21.766 18.7a14.379 14.379 0 0 1-8.354-2.757l1.98-4.528c2.25 1.552 4.501 2.374 6.374 2.374 1.637 0 2.504-.692 2.504-1.812 0-1.294-1.688-1.811-4.141-2.97-2.97-1.378-5.986-3.106-5.986-7.196 0-4.439 3.449-6.981 7.876-6.981 2.531.027 5.007.742 7.162 2.07l-1.766 4.652c-1.936-1.125-3.877-1.811-5.429-1.811-1.463 0-2.251.647-2.251 1.637 0 1.165 1.637 1.767 4.096 3.06 3.145 1.638 5.986 3.23 5.986 7.106.028 4.743-3.505 7.156-8.073 7.156h.022Z" fill="#000"/><path d="M21.733 22.103 0 18.266 24.805.246l-3.072 21.857Z" fill="#FDC330"/><path d="M19.066 30.328.411 21.236l8.905 27.41 9.75-18.318Z" fill="#FB3B57"/><path d="M26.059 35.408 12.214 49.754h27.69L26.06 35.408Z" fill="#F14AFF"/><path d="m27.32.246 3.065 21.857 21.733-3.837L27.32.246Z" fill="#26D318"/><path d="m33.052 30.328 9.75 18.317 8.905-27.409-18.655 9.092Z" fill="#41AFF9"/></svg>