<svg width="132" height="36" fill="none" xmlns="http://www.w3.org/2000/svg"><path d="M49.937 10.992V6.954h4.447v4.038h-4.447Zm0 18.577V12.796h4.447v16.773h-4.447Zm16.474 0h-8.59V6.954h8.361c4.365 0 7.433 2.066 7.433 5.912 0 2.679-1.452 4.09-3.068 4.941 2.39.97 4.038 2.426 4.038 5.396v.131c0 4.103-3.298 6.235-8.174 6.235Zm-.58-18.483h-3.458v5.138h3.228c2.07 0 3.395-.818 3.395-2.585 0-1.71-1.165-2.553-3.166-2.553Zm.58 9h-4.038v5.318h4.165c2.103 0 3.395-.871 3.395-2.618 0-1.747-1.166-2.684-3.522-2.684v-.016Zm10.91 9.466V6.954h4.447V29.57l-4.447-.017Zm14.924.344c-4.54 0-7.895-3.506-7.895-8.521v-.344c0-4.979 3.383-8.55 7.957-8.55 4.573 0 7.895 3.506 7.895 8.521v.344c0 4.995-3.383 8.566-7.957 8.566v-.016Zm3.555-8.849c0-2.757-1.407-4.696-3.538-4.696-2.193 0-3.51 1.91-3.51 4.635v.376c0 2.725 1.44 4.697 3.57 4.697 2.132 0 3.478-1.91 3.478-4.635v-.377Zm13.337 13.316a14.399 14.399 0 0 1-6.264-1.378l1.109-3.56a10.637 10.637 0 0 0 4.909 1.285c2.79 0 4.169-1.285 4.169-3.976v-1.068c-1.158 1.505-2.455 2.634-4.729 2.634-3.355 0-6.296-2.601-6.296-7.99 0-5.293 2.974-7.862 6.296-7.862 2.287 0 3.6 1.158 4.667 2.455v-2.128h4.447v13.689c.008 5.674-2.876 7.9-8.325 7.9h.017Zm.626-18.078c-1.878 0-3.273 1.567-3.273 4.136 0 2.57 1.378 4.07 3.273 4.07 1.894 0 3.321-1.562 3.321-4.07-.016-2.569-1.456-4.136-3.338-4.136h.017Zm15.827 13.599a10.458 10.458 0 0 1-6.075-2.005l1.44-3.293c1.637 1.13 3.273 1.726 4.635 1.726 1.191 0 1.821-.503 1.821-1.317 0-.94-1.228-1.317-3.011-2.16-2.16-1.002-4.353-2.258-4.353-5.232 0-3.228 2.508-5.077 5.727-5.077 1.841.02 3.641.54 5.208 1.505l-1.284 3.384c-1.408-.819-2.819-1.318-3.948-1.318-1.064 0-1.637.47-1.637 1.19 0 .848 1.191 1.285 2.979 2.226 2.286 1.19 4.352 2.348 4.352 5.167.021 3.449-2.548 5.204-5.87 5.204h.016ZM16.359 15.893.556 13.103 18.592 0 16.36 15.893ZM14.42 21.875.853 15.264l6.476 19.93 7.09-13.32ZM19.505 25.568 9.437 36h20.135L19.505 25.568ZM20.421 0l2.23 15.893 15.803-2.79L20.42 0ZM24.59 21.875l7.09 13.32 6.475-19.931-13.565 6.61Z" fill="#fff"/></svg>