<svg width="46" height="46" fill="none" xmlns="http://www.w3.org/2000/svg"><path d="M22.995 1.4c2.753 0 5.536 1.38 8.259 4.11l9.25 9.24c5.486 5.47 5.486 11 0 16.5l-9.25 9.24c-2.723 2.72-5.506 4.11-8.259 4.11s-5.526-1.39-8.249-4.11l-9.25-9.24c-5.486-5.48-5.486-11 0-16.5l9.25-9.24c2.723-2.73 5.506-4.11 8.249-4.11Zm0-1.4c-3.113 0-6.227 1.5-9.24 4.52l-9.25 9.24c-6.007 6-6.007 12.45 0 18.48l9.25 9.24c3.003 3 6.127 4.52 9.24 4.52 3.113 0 6.237-1.51 9.25-4.52l9.25-9.24c6.007-6 6.007-12.46 0-18.48l-9.25-9.24c-3.003-3-6.127-4.52-9.25-4.52ZM11.032 28.44v-1.16h3.003v-8.76h-.11l-2.703 2.6-.77-.83 2.893-2.7h2.002v9.73h2.813v1.16l-7.128-.04Zm12.494.19a5.008 5.008 0 0 1-1.632-.25 3.454 3.454 0 0 1-1.181-.66 2.642 2.642 0 0 1-.721-1 3.186 3.186 0 0 1-.24-1.24c-.039-.65.18-1.29.61-1.78a3.164 3.164 0 0 1 1.592-.92v-.13a2.773 2.773 0 0 1-1.372-1 2.578 2.578 0 0 1-.5-1.59 2.427 2.427 0 0 1 .9-2 3.877 3.877 0 0 1 2.544-.74 3.877 3.877 0 0 1 2.542.74 2.41 2.41 0 0 1 .911 2 2.518 2.518 0 0 1-.51 1.59 2.743 2.743 0 0 1-1.362 1v.13a3.244 3.244 0 0 1 1.592.92c.425.493.644 1.13.61 1.78.004.425-.078.847-.24 1.24a2.88 2.88 0 0 1-.72 1c-.347.296-.748.52-1.182.66a5.009 5.009 0 0 1-1.641.25Zm0-1.16a2.805 2.805 0 0 0 1.771-.5 1.77 1.77 0 0 0 .621-1.44v-.33a1.74 1.74 0 0 0-.62-1.43 2.745 2.745 0 0 0-1.772-.51 2.715 2.715 0 0 0-1.762.51 1.74 1.74 0 0 0-.621 1.43v.33a1.769 1.769 0 0 0 .62 1.44 2.775 2.775 0 0 0 1.763.5Zm0-5.3a2.405 2.405 0 0 0 1.561-.44 1.52 1.52 0 0 0 .53-1.27v-.23a1.518 1.518 0 0 0-.53-1.27 2.405 2.405 0 0 0-1.561-.44 2.445 2.445 0 0 0-1.562.44 1.55 1.55 0 0 0-.53 1.27v.23a1.549 1.549 0 0 0 .53 1.27c.455.32 1.006.475 1.562.44Zm8.589 5.3v-3.26h-3.003v-1.09h3.003v-3.26h1.181v3.26h3.053v1.06h-3.053v3.26l-1.181.03Z" fill="#000" fill-opacity=".3"/></svg>