<svg width="20" height="24" fill="none" xmlns="http://www.w3.org/2000/svg"><path d="M19.023 17.472a7.251 7.251 0 0 1-2.328-5.306l.27-3.159a6.577 6.577 0 0 0-1.098-3.612 6.54 6.54 0 0 0-2.9-2.406v-.18c0-.745-.295-1.46-.82-1.986a2.793 2.793 0 0 0-3.957 0 2.814 2.814 0 0 0-.82 1.985v.181a6.551 6.551 0 0 0-2.897 2.407 6.587 6.587 0 0 0-1.1 3.611l.27 3.16a7.264 7.264 0 0 1-2.318 5.305 2.008 2.008 0 0 0-.51 2.247 2.135 2.135 0 0 0 1.999 1.334h2.788A5.01 5.01 0 0 0 7.446 23.2a4.984 4.984 0 0 0 5.416 0 5.01 5.01 0 0 0 1.844-2.146h2.808a2.103 2.103 0 0 0 1.999-1.334 2.013 2.013 0 0 0-.49-2.247ZM10.179 1.595a1.196 1.196 0 0 1 1.14.903 6.522 6.522 0 0 0-2.28 0 1.184 1.184 0 0 1 1.14-.903Zm0 20.862a3.348 3.348 0 0 1-2.728-1.404h5.446a3.343 3.343 0 0 1-2.718 1.404Zm7.355-3.41H2.824c-.07 0-.12 0-.12-.12a9.408 9.408 0 0 0 2.998-6.85l-.27-3.15a4.832 4.832 0 0 1 1.51-3.209 4.797 4.797 0 0 1 6.574 0 4.832 4.832 0 0 1 1.51 3.209l-.28 3.15a9.449 9.449 0 0 0 2.998 6.85c-.09.1-.15.12-.21.12Z" fill="#000"/></svg>