<svg width="24" height="22" fill="none" xmlns="http://www.w3.org/2000/svg"><path opacity=".4" d="M12.325 21.44a10.72 10.72 0 0 1-5.3-1.41 9.1 9.1 0 0 1-6.39 0 1 1 0 0 1-.4-1.54l2.45-3.12a10.75 10.75 0 0 1-1.07-4.66A10.72 10.72 0 0 1 12.325 0a10.73 10.73 0 0 1 10.71 10.71 10.72 10.72 0 0 1-10.71 10.73Zm-5.22-3.53a1 1 0 0 1 .53.15 8.71 8.71 0 0 0 4.69 1.38 8.72 8.72 0 0 0 8.71-8.71 8.72 8.72 0 0 0-8.71-8.71 8.72 8.72 0 0 0-8.71 8.71 8.72 8.72 0 0 0 1.13 4.28 1 1 0 0 1-.09 1.11l-1.9 2.42a6.72 6.72 0 0 0 3.91-.54c.14-.06.289-.09.44-.09Z" fill="#000"/></svg>