<svg width="26" height="26" fill="none" xmlns="http://www.w3.org/2000/svg"><path d="M25.96 9.99a1 1 0 0 0-1.12-.68l-9.5 1.68L14 1.44a1 1 0 0 0-1-.86 1 1 0 0 0-1 .86l-1.34 9.55-9.49-1.68a1 1 0 0 0-1.13.68 1 1 0 0 0 .53 1.18l8.67 4.22-4.53 8.52a1 1 0 0 0 1.61 1.16l6.69-6.9 6.7 6.94a.999.999 0 0 0 .72.31 1 1 0 0 0 .64-.25 1 1 0 0 0 .29-1.27l-4.53-8.52 8.62-4.21a1 1 0 0 0 .51-1.18Z" fill="#000"/><path d="M19.01 3.53a2 2 0 1 1 4 0 2 2 0 0 1-4 0ZM3.31 15.47a1.7 1.7 0 1 0 0 3.4 1.7 1.7 0 0 0 0-3.4Z" fill="#41AFF9"/></svg>