<svg width="25" height="26" fill="none" xmlns="http://www.w3.org/2000/svg"><path d="m12.891 14.956 1.67 1.67-1.67 1.67-1.67-1.67 1.67-1.67Zm0-2.83-4.5 4.5 4.5 4.5 4.5-4.5-4.5-4.5Z" fill="#26D318"/><path d="M24.441 2.586a1 1 0 0 0-1.37.37l-4.1 7.07a9.39 9.39 0 0 0-1.65-1.22l4-6.87A1 1 0 0 0 20.195.47a1 1 0 0 0-.604.466l-4.09 7.08a9 9 0 0 0-2.6-.39 8.89 8.89 0 0 0-2.6.39L6.211.936a1 1 0 1 0-1.73 1l4 6.87a9 9 0 0 0-1.65 1.22l-4.09-7.07a1 1 0 1 0-1.73 1l4.43 7.67a9 9 0 1 0 15 0l4.44-7.67a.998.998 0 0 0-.44-1.37Zm-11.55 21a7 7 0 1 1 7-7 7 7 0 0 1-7 7.04v-.04Z" fill="#000"/></svg>